{
  "accessors": [
    {
      "bufferView": 2,
      "componentType": 5126,
      "count": 21346,
      "max": [
        1.3844419717788696,
        0.3615280091762543,
        3.899988889694214
      ],
      "min": [
        -1.48812997341156,
        -0.3787609934806824,
        0.0303569994866848
      ],
      "type": "VEC3"
    },
    {
      "bufferView": 2,
      "byteOffset": 256152,
      "componentType": 5126,
      "count": 21346,
      "max": [
        0.9999969005584717,
        1.0,
        0.9999983310699463
      ],
      "min": [
        -0.9999996423721313,
        -0.9999998807907104,
        -0.9999996423721313
      ],
      "type": "VEC3"
    },
    {
      "bufferView": 3,
      "componentType": 5126,
      "count": 21346,
      "max": [
        0.9999999403953552,
        0.9999819993972778,
        0.9999948143959045,
        1.0
      ],
      "min": [
        -0.9999942183494568,
        -0.9999998211860657,
        -0.9997531175613403,
        1.0
      ],
      "type": "VEC4"
    },
    {
      "bufferView": 1,
      "componentType": 5126,
      "count": 21346,
      "max": [
        0.9955210089683533,
        0.9688550233840942
      ],
      "min": [
        0.004480000119656324,
        0.004480000119656324
      ],
      "type": "VEC2"
    },
    {
      "bufferView": 0,
      "componentType": 5125,
      "count": 103782,
      "type": "SCALAR"
    }
  ],
  "asset": {
    "extras": {
      "author": "Lassi Kaukonen (https://sketchfab.com/thesidekick)",
      "license": "CC-BY-4.0 (http://creativecommons.org/licenses/by/4.0/)",
      "source": "https://sketchfab.com/3d-models/the-hobbit-95198e3460b14c4db3749eb888a869b3",
      "title": "The Hobbit"
    },
    "generator": "Sketchfab-12.61.0",
    "version": "2.0"
  },
  "bufferViews": [
    {
      "buffer": 0,
      "byteLength": 415128,
      "name": "floatBufferViews",
      "target": 34963
    },
    {
      "buffer": 0,
      "byteLength": 170768,
      "byteOffset": 415128,
      "byteStride": 8,
      "name": "floatBufferViews",
      "target": 34962
    },
    {
      "buffer": 0,
      "byteLength": 512304,
      "byteOffset": 585896,
      "byteStride": 12,
      "name": "floatBufferViews",
      "target": 34962
    },
    {
      "buffer": 0,
      "byteLength": 341536,
      "byteOffset": 1098200,
      "byteStride": 16,
      "name": "floatBufferViews",
      "target": 34962
    }
  ],
  "buffers": [
    {
      "byteLength": 1439736,
      "uri": "scene.bin"
    }
  ],
  "images": [
    {
      "uri": "textures/Solid_baseColor.jpeg"
    },
    {
      "uri": "textures/Solid_metallicRoughness.png"
    },
    {
      "uri": "textures/Solid_normal.png"
    }
  ],
  "materials": [
    {
      "doubleSided": true,
      "emissiveFactor": [
        0.38192945439952325,
        0.38192945439952325,
        0.38192945439952325
      ],
      "emissiveTexture": {
        "index": 0
      },
      "name": "Solid",
      "normalTexture": {
        "index": 2,
        "scale": 0.5003085837979825
      },
      "occlusionTexture": {
        "index": 1
      },
      "pbrMetallicRoughness": {
        "baseColorTexture": {
          "index": 0
        },
        "metallicFactor": 0.0,
        "metallicRoughnessTexture": {
          "index": 1
        }
      }
    }
  ],
  "meshes": [
    {
      "name": "Object_0",
      "primitives": [
        {
          "attributes": {
            "NORMAL": 1,
            "POSITION": 0,
            "TANGENT": 2,
            "TEXCOORD_0": 3
          },
          "indices": 4,
          "material": 0,
          "mode": 4
        }
      ]
    }
  ],
  "nodes": [
    {
      "children": [
        1
      ],
      "matrix": [
        1.0,
        0.0,
        0.0,
        0.0,
        0.0,
        2.220446049250313e-16,
        -1.0,
        0.0,
        0.0,
        1.0,
        2.220446049250313e-16,
        0.0,
        0.0,
        0.0,
        0.0,
        1.0
      ],
      "name": "Sketchfab_model"
    },
    {
      "children": [
        2
      ],
      "name": "hobbit_book_SF.obj.cleaner.materialmerger.gles"
    },
    {
      "mesh": 0,
      "name": "Object_2"
    }
  ],
  "samplers": [
    {
      "magFilter": 9729,
      "minFilter": 9987,
      "wrapS": 10497,
      "wrapT": 10497
    }
  ],
  "scene": 0,
  "scenes": [
    {
      "name": "Sketchfab_Scene",
      "nodes": [
        0
      ]
    }
  ],
  "textures": [
    {
      "sampler": 0,
      "source": 0
    },
    {
      "sampler": 0,
      "source": 1
    },
    {
      "sampler": 0,
      "source": 2
    }
  ]
}
